<?xml version="1.0" encoding="utf-8"?>
<!-- Generator: Adobe Illustrator 21.1.0, SVG Export Plug-In . SVG Version: 6.00 Build 0)  -->
<svg version="1.1" id="Capa_1" xmlns="http://www.w3.org/2000/svg" xmlns:xlink="http://www.w3.org/1999/xlink" x="0px" y="0px"
	 viewBox="0 0 476.9 476.9" style="enable-background:new 0 0 476.9 476.9;" xml:space="preserve">
<g>
	<path d="M236.9,381.1c-29.3,0-53.2,22.2-53.2,49.5c0,13,7.6,20.7,20.4,20.7c5.9,0,12.3-1.5,18.6-2.9c5.2-1.2,10.5-2.4,14.2-2.4
		c3.2,0,8.3,1.2,13.2,2.3c6.4,1.5,13.1,3,19.2,3c13,0,20.8-7.7,20.8-20.7C290.1,403.3,266.2,381.1,236.9,381.1z M272.6,433.8
		c0,0-0.7,0.5-3.3,0.5c-4.2,0-9.8-1.3-15.3-2.6c-6.1-1.4-11.9-2.8-17-2.8c-5.6,0-11.9,1.5-18,2.9c-5.3,1.2-10.8,2.5-14.7,2.5
		c-2.2,0-2.9-0.4-2.9-0.4c0-0.1-0.5-0.9-0.5-3.3c0-17.9,16.2-32.5,36.2-32.5s36.2,14.6,36.2,32.5
		C273.1,432.7,272.7,433.6,272.6,433.8z"/>
	<path d="M210.4,364.8c0-15-10.4-27.1-23.1-27.1c-12.8,0-23.1,12.2-23.1,27.1c0,15,10.4,27.1,23.1,27.1
		C200.1,392,210.4,379.8,210.4,364.8z M181.2,364.8c0-5.8,3.2-10.1,6.1-10.1c2.9,0,6.1,4.3,6.1,10.1s-3.2,10.1-6.1,10.1
		C184.4,375,181.2,370.6,181.2,364.8z"/>
	<path d="M238.5,375.2c12.8,0,23.1-12.2,23.1-27.1c0-15-10.4-27.1-23.1-27.1c-12.8,0-23.1,12.2-23.1,27.1
		C215.3,363,225.7,375.2,238.5,375.2z M238.5,337.9c2.9,0,6.1,4.3,6.1,10.1s-3.2,10.1-6.1,10.1c-2.9,0-6.1-4.3-6.1-10.1
		C232.3,342.3,235.6,337.9,238.5,337.9z"/>
	<path d="M289.6,337.7c-12.8,0-23.1,12.2-23.1,27.1c0,15,10.4,27.1,23.1,27.1s23.1-12.2,23.1-27.1
		C312.7,349.9,302.4,337.7,289.6,337.7z M289.6,375c-2.9,0-6.1-4.3-6.1-10.1s3.2-10.1,6.1-10.1s6.1,4.3,6.1,10.1
		C295.7,370.6,292.5,375,289.6,375z"/>
	<path d="M386.4,227.5c2.3-7.4,0.2-15.2-1.7-22.3c-1.3-4.8-2.6-9.9-2-12.8c0.6-2.7,4-6.7,7.1-10.2c5.4-6.3,11.6-13.4,11.6-22.8
		c0-9.3-6.2-16.5-11.6-22.8c-3-3.5-6.5-7.5-7.1-10.2c-0.7-3,0.7-8,2-12.8c2.1-7.9,4.5-16.9,0.6-25c-4-8.3-12.6-12-20.2-15.3
		c-4.3-1.9-9.2-4-11-6.3c-1.8-2.3-2.8-7.3-3.7-12.2c-1.5-8.1-3.2-17.3-10.4-23c-7.1-5.7-16.4-5.3-24.6-5c-5,0.2-10.1,0.4-12.8-0.9
		c-2.6-1.2-5.7-5.5-8.5-9.3c-4.9-6.7-10.5-14.3-19.5-16.3c-8.7-2-16.9,2.3-24.1,6.1c-4.5,2.4-9.1,4.8-12.2,4.8
		c-3.1,0-7.7-2.5-12.2-4.8c-7.2-3.8-15.3-8.1-24.1-6.1c-9,2-14.6,9.6-19.5,16.3c-2.8,3.8-5.9,8-8.5,9.3c-2.7,1.3-7.8,1.1-12.8,0.9
		c-8.2-0.3-17.5-0.7-24.6,5c-7.1,5.7-8.8,14.9-10.4,23c-0.9,4.9-1.9,9.9-3.7,12.2c-1.8,2.3-6.7,4.4-11,6.3
		c-7.6,3.3-16.2,7-20.2,15.3c-3.9,8.1-1.5,17.1,0.6,25c1.3,4.8,2.6,9.9,2,12.8c-0.6,2.7-4,6.7-7.1,10.2
		c-5.4,6.3-11.6,13.4-11.6,22.8c0,9.3,6.2,16.5,11.6,22.8c3,3.5,6.5,7.5,7.1,10.2c0.7,3-0.7,8-2,12.8c-1.9,7-4,14.9-1.7,22.3
		c-13.8,8-22,17.7-22,29.2v164.1c0,36.9,85.5,56.2,170,56.2s170-19.3,170-56.2V256.6C408.4,245.2,400.2,235.5,386.4,227.5z
		 M110.7,188.6c-1.6-6.8-6.3-12.3-10.8-17.5c-3.5-4.1-7.5-8.7-7.5-11.6c0-3,4-7.6,7.5-11.6c4.5-5.3,9.2-10.7,10.8-17.5
		c1.6-7.1-0.4-14.5-2.1-21c-1.3-4.8-2.9-10.8-1.7-13.2c1.2-2.6,6.7-4.9,11.6-7.1c6.4-2.8,13.1-5.7,17.5-11.2
		c4.5-5.6,5.9-13.1,7.1-19.7c1-5.2,2.1-11.1,4.3-12.8c2.2-1.7,8.4-1.5,13.4-1.3c6.7,0.3,14.4,0.5,20.8-2.6
		c6.4-3.1,10.6-8.9,14.8-14.5c3.2-4.3,6.7-9.2,9.6-9.8c2.6-0.6,8,2.3,12.3,4.6c6,3.2,12.8,6.8,20.2,6.8s14.1-3.6,20.2-6.8
		c4.4-2.3,9.8-5.2,12.3-4.6c2.8,0.6,6.4,5.5,9.6,9.8c4.1,5.6,8.4,11.4,14.8,14.5c6.5,3.1,14.1,2.8,20.8,2.6c5-0.2,11.2-0.4,13.4,1.3
		c2.2,1.7,3.3,7.6,4.3,12.8c1.2,6.6,2.6,14.1,7.1,19.7c4.4,5.6,11.1,8.5,17.5,11.2c4.9,2.1,10.4,4.5,11.6,7.1
		c1.2,2.4-0.4,8.4-1.7,13.2c-1.8,6.5-3.7,13.9-2.1,21c1.6,6.8,6.3,12.3,10.8,17.5c3.5,4.1,7.5,8.7,7.5,11.6c0,3-4,7.6-7.5,11.6
		c-4.5,5.3-9.2,10.7-10.8,17.5c-1.6,7.1,0.4,14.5,2.1,21c0.9,3.4,2,7.4,2.1,10.3c-32.8-12.9-82.6-19.5-132-19.5s-99.2,6.6-132,19.5
		c0.1-2.9,1.2-6.9,2.1-10.3C110.3,203.1,112.3,195.7,110.7,188.6z M126.7,231c29.7-8.8,69.4-13.6,111.8-13.6s82,4.8,111.8,13.6
		c30.4,9,41.2,19.4,41.2,25.6s-10.8,16.6-41.2,25.6c-29.7,8.8-69.4,13.6-111.8,13.6s-82-4.8-111.8-13.6c-30.4-9-41.2-19.4-41.2-25.6
		C85.5,250.4,96.3,240,126.7,231z M350.2,446.3c-29.7,8.8-69.4,13.6-111.8,13.6s-82-4.8-111.8-13.6c-30.4-9-41.2-19.4-41.2-25.6
		V282.6c29.1,19.9,91.3,30.2,153,30.2s123.9-10.3,153-30.2v138.1C391.4,426.9,380.6,437.3,350.2,446.3z"/>
</g>
</svg>
